<mxfile host="app.diagrams.net" modified="2024-07-15T08:34:46.043Z" agent="Mozilla/5.0 (Windows NT 10.0; Win64; x64) AppleWebKit/537.36 (KHTML, like Gecko) Chrome/126.0.0.0 Safari/537.36" etag="FLOTQmwWSQiK8SXjR3Rd" version="24.6.5" type="device">
  <diagram name="Page-1" id="cZXB1l07K8het6jW83Hv">
    <mxGraphModel dx="989" dy="509" grid="1" gridSize="10" guides="1" tooltips="1" connect="1" arrows="1" fold="1" page="1" pageScale="1" pageWidth="850" pageHeight="1100" math="0" shadow="0">
      <root>
        <mxCell id="0" />
        <mxCell id="1" parent="0" />
        <mxCell id="jiL5qLJQIIgZNi9Q_BXH-3" value="" style="edgeStyle=orthogonalEdgeStyle;rounded=0;orthogonalLoop=1;jettySize=auto;html=1;fillColor=#dae8fc;strokeColor=#000000;" parent="1" source="jiL5qLJQIIgZNi9Q_BXH-1" target="jiL5qLJQIIgZNi9Q_BXH-2" edge="1">
          <mxGeometry relative="1" as="geometry" />
        </mxCell>
        <mxCell id="jiL5qLJQIIgZNi9Q_BXH-1" value="new" style="ellipse;whiteSpace=wrap;html=1;fillColor=#dae8fc;strokeColor=#6c8ebf;" parent="1" vertex="1">
          <mxGeometry x="400" y="170" width="50" height="50" as="geometry" />
        </mxCell>
        <mxCell id="jiL5qLJQIIgZNi9Q_BXH-8" value="" style="edgeStyle=orthogonalEdgeStyle;rounded=0;orthogonalLoop=1;jettySize=auto;html=1;fillColor=#dae8fc;strokeColor=#000000;" parent="1" source="jiL5qLJQIIgZNi9Q_BXH-2" target="jiL5qLJQIIgZNi9Q_BXH-7" edge="1">
          <mxGeometry relative="1" as="geometry" />
        </mxCell>
        <mxCell id="3TwBB-6sS05rdvOr4Rrc-7" style="edgeStyle=orthogonalEdgeStyle;rounded=0;orthogonalLoop=1;jettySize=auto;html=1;exitX=0.5;exitY=1;exitDx=0;exitDy=0;entryX=1;entryY=0;entryDx=0;entryDy=0;curved=1;" edge="1" parent="1" source="jiL5qLJQIIgZNi9Q_BXH-2" target="jiL5qLJQIIgZNi9Q_BXH-4">
          <mxGeometry relative="1" as="geometry">
            <mxPoint x="550" y="240" as="targetPoint" />
            <Array as="points">
              <mxPoint x="533" y="220" />
              <mxPoint x="533" y="240" />
            </Array>
          </mxGeometry>
        </mxCell>
        <mxCell id="jiL5qLJQIIgZNi9Q_BXH-2" value="visible" style="ellipse;whiteSpace=wrap;html=1;fillColor=#ffe6cc;strokeColor=#d79b00;" parent="1" vertex="1">
          <mxGeometry x="490" y="170" width="50" height="50" as="geometry" />
        </mxCell>
        <mxCell id="3TwBB-6sS05rdvOr4Rrc-6" style="edgeStyle=orthogonalEdgeStyle;rounded=0;orthogonalLoop=1;jettySize=auto;html=1;exitX=0.5;exitY=0;exitDx=0;exitDy=0;entryX=0;entryY=1;entryDx=0;entryDy=0;curved=1;" edge="1" parent="1" source="jiL5qLJQIIgZNi9Q_BXH-4" target="jiL5qLJQIIgZNi9Q_BXH-2">
          <mxGeometry relative="1" as="geometry">
            <Array as="points">
              <mxPoint x="497" y="250" />
              <mxPoint x="497" y="230" />
            </Array>
          </mxGeometry>
        </mxCell>
        <mxCell id="jiL5qLJQIIgZNi9Q_BXH-4" value="hidden" style="ellipse;whiteSpace=wrap;html=1;fillColor=#dae8fc;strokeColor=#6c8ebf;" parent="1" vertex="1">
          <mxGeometry x="490" y="250" width="50" height="50" as="geometry" />
        </mxCell>
        <mxCell id="jiL5qLJQIIgZNi9Q_BXH-7" value="lost" style="ellipse;whiteSpace=wrap;html=1;fillColor=#f8cecc;strokeColor=#b85450;" parent="1" vertex="1">
          <mxGeometry x="490" y="100" width="50" height="50" as="geometry" />
        </mxCell>
        <mxCell id="jiL5qLJQIIgZNi9Q_BXH-11" value="" style="edgeStyle=orthogonalEdgeStyle;rounded=0;orthogonalLoop=1;jettySize=auto;html=1;fillColor=#dae8fc;strokeColor=#000000;" parent="1" source="jiL5qLJQIIgZNi9Q_BXH-12" target="jiL5qLJQIIgZNi9Q_BXH-16" edge="1">
          <mxGeometry relative="1" as="geometry" />
        </mxCell>
        <mxCell id="jiL5qLJQIIgZNi9Q_BXH-12" value="new" style="ellipse;whiteSpace=wrap;html=1;fillColor=#ffe6cc;strokeColor=#d79b00;" parent="1" vertex="1">
          <mxGeometry x="610" y="170" width="50" height="50" as="geometry" />
        </mxCell>
        <mxCell id="jiL5qLJQIIgZNi9Q_BXH-14" value="" style="edgeStyle=orthogonalEdgeStyle;rounded=0;orthogonalLoop=1;jettySize=auto;html=1;fillColor=#dae8fc;strokeColor=#000000;" parent="1" source="jiL5qLJQIIgZNi9Q_BXH-16" target="jiL5qLJQIIgZNi9Q_BXH-19" edge="1">
          <mxGeometry relative="1" as="geometry" />
        </mxCell>
        <mxCell id="3TwBB-6sS05rdvOr4Rrc-25" style="edgeStyle=orthogonalEdgeStyle;rounded=0;orthogonalLoop=1;jettySize=auto;html=1;exitX=1;exitY=0.5;exitDx=0;exitDy=0;curved=1;entryX=0;entryY=0;entryDx=0;entryDy=0;" edge="1" parent="1" source="jiL5qLJQIIgZNi9Q_BXH-16" target="jiL5qLJQIIgZNi9Q_BXH-22">
          <mxGeometry relative="1" as="geometry">
            <mxPoint x="760" y="210" as="targetPoint" />
            <Array as="points">
              <mxPoint x="750" y="177" />
              <mxPoint x="807" y="177" />
            </Array>
          </mxGeometry>
        </mxCell>
        <mxCell id="3TwBB-6sS05rdvOr4Rrc-27" style="edgeStyle=orthogonalEdgeStyle;rounded=0;orthogonalLoop=1;jettySize=auto;html=1;exitX=1;exitY=1;exitDx=0;exitDy=0;entryX=0;entryY=0;entryDx=0;entryDy=0;curved=1;" edge="1" parent="1" source="jiL5qLJQIIgZNi9Q_BXH-16" target="jiL5qLJQIIgZNi9Q_BXH-18">
          <mxGeometry relative="1" as="geometry">
            <Array as="points">
              <mxPoint x="740" y="213" />
              <mxPoint x="740" y="257" />
            </Array>
          </mxGeometry>
        </mxCell>
        <mxCell id="jiL5qLJQIIgZNi9Q_BXH-16" value="visible" style="ellipse;whiteSpace=wrap;html=1;fillColor=#ffe6cc;strokeColor=#d79b00;" parent="1" vertex="1">
          <mxGeometry x="700" y="170" width="50" height="50" as="geometry" />
        </mxCell>
        <mxCell id="3TwBB-6sS05rdvOr4Rrc-23" style="edgeStyle=orthogonalEdgeStyle;rounded=0;orthogonalLoop=1;jettySize=auto;html=1;exitX=1;exitY=0;exitDx=0;exitDy=0;entryX=0.5;entryY=1;entryDx=0;entryDy=0;curved=1;" edge="1" parent="1" source="jiL5qLJQIIgZNi9Q_BXH-18" target="jiL5qLJQIIgZNi9Q_BXH-22">
          <mxGeometry relative="1" as="geometry">
            <Array as="points">
              <mxPoint x="825" y="257" />
            </Array>
          </mxGeometry>
        </mxCell>
        <mxCell id="3TwBB-6sS05rdvOr4Rrc-28" style="edgeStyle=orthogonalEdgeStyle;rounded=0;orthogonalLoop=1;jettySize=auto;html=1;exitX=0;exitY=0;exitDx=0;exitDy=0;entryX=1;entryY=1;entryDx=0;entryDy=0;curved=1;" edge="1" parent="1" source="jiL5qLJQIIgZNi9Q_BXH-18" target="jiL5qLJQIIgZNi9Q_BXH-16">
          <mxGeometry relative="1" as="geometry">
            <Array as="points">
              <mxPoint x="770" y="257" />
              <mxPoint x="770" y="213" />
            </Array>
          </mxGeometry>
        </mxCell>
        <mxCell id="jiL5qLJQIIgZNi9Q_BXH-18" value="hidden" style="ellipse;whiteSpace=wrap;html=1;fillColor=#dae8fc;strokeColor=#6c8ebf;" parent="1" vertex="1">
          <mxGeometry x="760" y="250" width="50" height="50" as="geometry" />
        </mxCell>
        <mxCell id="jiL5qLJQIIgZNi9Q_BXH-19" value="lost" style="ellipse;whiteSpace=wrap;html=1;fillColor=#f8cecc;strokeColor=#b85450;" parent="1" vertex="1">
          <mxGeometry x="700" y="100" width="50" height="50" as="geometry" />
        </mxCell>
        <mxCell id="3TwBB-6sS05rdvOr4Rrc-24" style="edgeStyle=orthogonalEdgeStyle;rounded=0;orthogonalLoop=1;jettySize=auto;html=1;exitX=0.5;exitY=1;exitDx=0;exitDy=0;entryX=1;entryY=0;entryDx=0;entryDy=0;curved=1;" edge="1" parent="1" source="jiL5qLJQIIgZNi9Q_BXH-22" target="jiL5qLJQIIgZNi9Q_BXH-18">
          <mxGeometry relative="1" as="geometry">
            <Array as="points">
              <mxPoint x="803" y="220" />
              <mxPoint x="803" y="250" />
              <mxPoint x="803" y="250" />
            </Array>
          </mxGeometry>
        </mxCell>
        <mxCell id="3TwBB-6sS05rdvOr4Rrc-26" style="edgeStyle=orthogonalEdgeStyle;rounded=0;orthogonalLoop=1;jettySize=auto;html=1;exitX=0;exitY=0.5;exitDx=0;exitDy=0;entryX=1;entryY=1;entryDx=0;entryDy=0;curved=1;" edge="1" parent="1" source="jiL5qLJQIIgZNi9Q_BXH-22" target="jiL5qLJQIIgZNi9Q_BXH-16">
          <mxGeometry relative="1" as="geometry">
            <Array as="points">
              <mxPoint x="800" y="210" />
              <mxPoint x="750" y="210" />
              <mxPoint x="750" y="213" />
            </Array>
          </mxGeometry>
        </mxCell>
        <mxCell id="jiL5qLJQIIgZNi9Q_BXH-22" value="no&lt;div&gt;interest&lt;/div&gt;" style="ellipse;whiteSpace=wrap;html=1;fillColor=#dae8fc;strokeColor=#6c8ebf;" parent="1" vertex="1">
          <mxGeometry x="800" y="170" width="50" height="50" as="geometry" />
        </mxCell>
        <mxCell id="jiL5qLJQIIgZNi9Q_BXH-26" value="Tracker SM" style="text;html=1;align=center;verticalAlign=middle;whiteSpace=wrap;rounded=0;fontSize=22;fontStyle=1" parent="1" vertex="1">
          <mxGeometry x="430" y="60" width="130" height="30" as="geometry" />
        </mxCell>
        <mxCell id="jiL5qLJQIIgZNi9Q_BXH-27" value="TP SM" style="text;html=1;align=center;verticalAlign=middle;whiteSpace=wrap;rounded=0;fontSize=22;fontStyle=1" parent="1" vertex="1">
          <mxGeometry x="672.5" y="60" width="105" height="30" as="geometry" />
        </mxCell>
        <mxCell id="3TwBB-6sS05rdvOr4Rrc-10" value="track" style="ellipse;whiteSpace=wrap;html=1;fillColor=#dae8fc;strokeColor=#6c8ebf;" vertex="1" parent="1">
          <mxGeometry x="530" y="350" width="50" height="50" as="geometry" />
        </mxCell>
        <mxCell id="3TwBB-6sS05rdvOr4Rrc-11" value="measure" style="ellipse;whiteSpace=wrap;html=1;fillColor=#ffe6cc;strokeColor=#d79b00;" vertex="1" parent="1">
          <mxGeometry x="590" y="350" width="50" height="50" as="geometry" />
        </mxCell>
        <mxCell id="3TwBB-6sS05rdvOr4Rrc-12" value="discard" style="ellipse;whiteSpace=wrap;html=1;fillColor=#f8cecc;strokeColor=#b85450;" vertex="1" parent="1">
          <mxGeometry x="650" y="350" width="50" height="50" as="geometry" />
        </mxCell>
      </root>
    </mxGraphModel>
  </diagram>
</mxfile>
